<svg width="180" height="180" viewBox="0 0 180 180" fill="none" xmlns="http://www.w3.org/2000/svg">
  <rect width="180" height="180" rx="37" fill="#3BB8A5"/>
  <!-- Rays pattern inspired by the Santaddeo logo sun -->
  <g opacity="0.3">
    <rect x="87" y="8" width="6" height="24" rx="3" fill="white" transform="rotate(0 90 90)"/>
    <rect x="87" y="8" width="6" height="24" rx="3" fill="white" transform="rotate(15 90 90)"/>
    <rect x="87" y="8" width="6" height="24" rx="3" fill="white" transform="rotate(30 90 90)"/>
    <rect x="87" y="8" width="6" height="24" rx="3" fill="white" transform="rotate(45 90 90)"/>
    <rect x="87" y="8" width="6" height="24" rx="3" fill="white" transform="rotate(60 90 90)"/>
    <rect x="87" y="8" width="6" height="24" rx="3" fill="white" transform="rotate(75 90 90)"/>
    <rect x="87" y="8" width="6" height="24" rx="3" fill="white" transform="rotate(90 90 90)"/>
    <rect x="87" y="8" width="6" height="24" rx="3" fill="white" transform="rotate(105 90 90)"/>
    <rect x="87" y="8" width="6" height="24" rx="3" fill="white" transform="rotate(120 90 90)"/>
    <rect x="87" y="8" width="6" height="24" rx="3" fill="white" transform="rotate(135 90 90)"/>
    <rect x="87" y="8" width="6" height="24" rx="3" fill="white" transform="rotate(150 90 90)"/>
    <rect x="87" y="8" width="6" height="24" rx="3" fill="white" transform="rotate(165 90 90)"/>
    <rect x="87" y="8" width="6" height="24" rx="3" fill="white" transform="rotate(180 90 90)"/>
    <rect x="87" y="8" width="6" height="24" rx="3" fill="white" transform="rotate(195 90 90)"/>
    <rect x="87" y="8" width="6" height="24" rx="3" fill="white" transform="rotate(210 90 90)"/>
    <rect x="87" y="8" width="6" height="24" rx="3" fill="white" transform="rotate(225 90 90)"/>
    <rect x="87" y="8" width="6" height="24" rx="3" fill="white" transform="rotate(240 90 90)"/>
    <rect x="87" y="8" width="6" height="24" rx="3" fill="white" transform="rotate(255 90 90)"/>
    <rect x="87" y="8" width="6" height="24" rx="3" fill="white" transform="rotate(270 90 90)"/>
    <rect x="87" y="8" width="6" height="24" rx="3" fill="white" transform="rotate(285 90 90)"/>
    <rect x="87" y="8" width="6" height="24" rx="3" fill="white" transform="rotate(300 90 90)"/>
    <rect x="87" y="8" width="6" height="24" rx="3" fill="white" transform="rotate(315 90 90)"/>
    <rect x="87" y="8" width="6" height="24" rx="3" fill="white" transform="rotate(330 90 90)"/>
    <rect x="87" y="8" width="6" height="24" rx="3" fill="white" transform="rotate(345 90 90)"/>
  </g>
  <!-- Letter S stylized -->
  <text x="90" y="108" font-family="Arial Black, Arial, sans-serif" font-weight="900" font-size="96" fill="white" text-anchor="middle" dominant-baseline="central">S</text>
</svg>
